<mxfile host="app.diagrams.net" modified="2023-09-30T22:34:00.789Z" agent="Mozilla/5.0 (Windows NT 10.0; Win64; x64; rv:109.0) Gecko/20100101 Firefox/118.0" etag="wD5Jh086yeEEiABvukgu" version="22.0.0" type="device">
  <diagram name="Page-1" id="VX5UAWXD-giaiqMZnsXl">
    <mxGraphModel dx="2284" dy="1846" grid="1" gridSize="10" guides="1" tooltips="1" connect="1" arrows="1" fold="1" page="1" pageScale="1" pageWidth="850" pageHeight="1100" math="0" shadow="0">
      <root>
        <mxCell id="0" />
        <mxCell id="1" parent="0" />
        <mxCell id="6iWy4jJI9dwAKIS74mSv-35" style="edgeStyle=orthogonalEdgeStyle;rounded=0;orthogonalLoop=1;jettySize=auto;html=1;exitX=0.5;exitY=1;exitDx=0;exitDy=0;" parent="1" source="6iWy4jJI9dwAKIS74mSv-1" target="6iWy4jJI9dwAKIS74mSv-4" edge="1">
          <mxGeometry relative="1" as="geometry" />
        </mxCell>
        <mxCell id="6iWy4jJI9dwAKIS74mSv-1" value="&lt;div style=&quot;font-size: 14px;&quot;&gt;&lt;font style=&quot;font-size: 14px;&quot;&gt;&amp;nbsp;Задание массива&lt;/font&gt;&lt;/div&gt;&lt;div style=&quot;font-size: 14px;&quot;&gt;&lt;font style=&quot;font-size: 14px;&quot;&gt;&amp;nbsp;arr[ ]&lt;/font&gt;&lt;/div&gt;" style="shape=parallelogram;perimeter=parallelogramPerimeter;whiteSpace=wrap;html=1;fixedSize=1;" parent="1" vertex="1">
          <mxGeometry x="327.5" y="70" width="145" height="70" as="geometry" />
        </mxCell>
        <mxCell id="6iWy4jJI9dwAKIS74mSv-34" style="edgeStyle=orthogonalEdgeStyle;rounded=0;orthogonalLoop=1;jettySize=auto;html=1;exitX=0.5;exitY=1;exitDx=0;exitDy=0;entryX=0.5;entryY=0;entryDx=0;entryDy=0;" parent="1" source="6iWy4jJI9dwAKIS74mSv-3" target="6iWy4jJI9dwAKIS74mSv-1" edge="1">
          <mxGeometry relative="1" as="geometry" />
        </mxCell>
        <mxCell id="6iWy4jJI9dwAKIS74mSv-3" value="&lt;b&gt;&lt;font style=&quot;font-size: 19px;&quot;&gt;&lt;i&gt;Start&lt;/i&gt;&lt;/font&gt;&lt;/b&gt;" style="ellipse;whiteSpace=wrap;html=1;" parent="1" vertex="1">
          <mxGeometry x="340" y="-40" width="120" height="80" as="geometry" />
        </mxCell>
        <mxCell id="6iWy4jJI9dwAKIS74mSv-36" style="edgeStyle=orthogonalEdgeStyle;rounded=0;orthogonalLoop=1;jettySize=auto;html=1;exitX=0.5;exitY=1;exitDx=0;exitDy=0;entryX=0.5;entryY=0;entryDx=0;entryDy=0;" parent="1" source="6iWy4jJI9dwAKIS74mSv-4" target="6iWy4jJI9dwAKIS74mSv-6" edge="1">
          <mxGeometry relative="1" as="geometry" />
        </mxCell>
        <mxCell id="6iWy4jJI9dwAKIS74mSv-4" value="&lt;font style=&quot;font-size: 14px;&quot;&gt;flag = 1&lt;/font&gt;" style="rounded=0;whiteSpace=wrap;html=1;" parent="1" vertex="1">
          <mxGeometry x="345" y="170" width="110" height="40" as="geometry" />
        </mxCell>
        <mxCell id="6iWy4jJI9dwAKIS74mSv-37" style="edgeStyle=orthogonalEdgeStyle;rounded=0;orthogonalLoop=1;jettySize=auto;html=1;exitX=0.5;exitY=1;exitDx=0;exitDy=0;entryX=0.5;entryY=0;entryDx=0;entryDy=0;" parent="1" source="6iWy4jJI9dwAKIS74mSv-6" target="6iWy4jJI9dwAKIS74mSv-23" edge="1">
          <mxGeometry relative="1" as="geometry" />
        </mxCell>
        <mxCell id="6iWy4jJI9dwAKIS74mSv-6" value="&lt;font style=&quot;font-size: 14px;&quot;&gt;rightPosition = arr.lengh - 1&lt;br&gt;&lt;/font&gt;" style="rounded=0;whiteSpace=wrap;html=1;" parent="1" vertex="1">
          <mxGeometry x="332.5" y="240" width="135" height="60" as="geometry" />
        </mxCell>
        <mxCell id="6iWy4jJI9dwAKIS74mSv-39" style="edgeStyle=orthogonalEdgeStyle;rounded=0;orthogonalLoop=1;jettySize=auto;html=1;exitX=0;exitY=0.5;exitDx=0;exitDy=0;entryX=0.5;entryY=0;entryDx=0;entryDy=0;" parent="1" source="6iWy4jJI9dwAKIS74mSv-7" target="6iWy4jJI9dwAKIS74mSv-24" edge="1">
          <mxGeometry relative="1" as="geometry">
            <mxPoint x="252.5" y="521.79" as="sourcePoint" />
          </mxGeometry>
        </mxCell>
        <mxCell id="6iWy4jJI9dwAKIS74mSv-40" value="ДА" style="edgeLabel;html=1;align=center;verticalAlign=middle;resizable=0;points=[];fontSize=14;" parent="6iWy4jJI9dwAKIS74mSv-39" vertex="1" connectable="0">
          <mxGeometry x="-0.3462" y="-2" relative="1" as="geometry">
            <mxPoint as="offset" />
          </mxGeometry>
        </mxCell>
        <mxCell id="6iWy4jJI9dwAKIS74mSv-64" style="edgeStyle=orthogonalEdgeStyle;rounded=0;orthogonalLoop=1;jettySize=auto;html=1;exitX=1;exitY=0.5;exitDx=0;exitDy=0;entryX=0.5;entryY=0;entryDx=0;entryDy=0;" parent="1" source="6iWy4jJI9dwAKIS74mSv-7" target="6iWy4jJI9dwAKIS74mSv-21" edge="1">
          <mxGeometry relative="1" as="geometry" />
        </mxCell>
        <mxCell id="6iWy4jJI9dwAKIS74mSv-66" value="НЕТ" style="edgeLabel;html=1;align=center;verticalAlign=middle;resizable=0;points=[];fontSize=14;" parent="6iWy4jJI9dwAKIS74mSv-64" vertex="1" connectable="0">
          <mxGeometry x="-0.3462" y="2" relative="1" as="geometry">
            <mxPoint as="offset" />
          </mxGeometry>
        </mxCell>
        <mxCell id="6iWy4jJI9dwAKIS74mSv-7" value="&lt;br&gt;&lt;div style=&quot;font-size: 14px;&quot;&gt;&lt;font style=&quot;font-size: 14px;&quot;&gt;leftPosition &amp;lt; rightPosition&lt;/font&gt;&lt;/div&gt;&lt;div style=&quot;font-size: 14px;&quot;&gt;&lt;font style=&quot;font-size: 14px;&quot;&gt;и &lt;br&gt;&lt;/font&gt;&lt;/div&gt;&lt;div style=&quot;font-size: 14px;&quot;&gt;&lt;font style=&quot;font-size: 14px;&quot;&gt;flag &amp;gt; 0&lt;font style=&quot;font-size: 14px;&quot;&gt;&lt;br&gt;&lt;/font&gt;&lt;/font&gt;&lt;/div&gt;" style="rhombus;whiteSpace=wrap;html=1;" parent="1" vertex="1">
          <mxGeometry x="286.25" y="440" width="227.5" height="120" as="geometry" />
        </mxCell>
        <mxCell id="4WM1RJwRTXSjKx9riZBm-3" style="edgeStyle=orthogonalEdgeStyle;rounded=0;orthogonalLoop=1;jettySize=auto;html=1;exitX=0.5;exitY=1;exitDx=0;exitDy=0;entryX=0.5;entryY=0;entryDx=0;entryDy=0;" edge="1" parent="1" source="6iWy4jJI9dwAKIS74mSv-9" target="4WM1RJwRTXSjKx9riZBm-2">
          <mxGeometry relative="1" as="geometry" />
        </mxCell>
        <mxCell id="6iWy4jJI9dwAKIS74mSv-9" value="&lt;div style=&quot;font-size: 14px;&quot;&gt;&lt;font style=&quot;font-size: 14px;&quot;&gt;Цикл i&lt;/font&gt;&lt;/div&gt;&lt;div style=&quot;font-size: 14px;&quot;&gt;&lt;font style=&quot;font-size: 14px;&quot;&gt;от leftPosition&lt;/font&gt;&lt;/div&gt;&lt;div style=&quot;font-size: 14px;&quot;&gt;&lt;font style=&quot;font-size: 14px;&quot;&gt;до rightPosition&lt;font style=&quot;font-size: 14px;&quot;&gt;&lt;br&gt;&lt;/font&gt;&lt;/font&gt;&lt;/div&gt;" style="shape=loopLimit;whiteSpace=wrap;html=1;" parent="1" vertex="1">
          <mxGeometry x="76.25" y="621.79" width="130" height="80" as="geometry" />
        </mxCell>
        <mxCell id="6iWy4jJI9dwAKIS74mSv-45" style="edgeStyle=orthogonalEdgeStyle;rounded=0;orthogonalLoop=1;jettySize=auto;html=1;exitX=0;exitY=0.5;exitDx=0;exitDy=0;entryX=0.5;entryY=0;entryDx=0;entryDy=0;" parent="1" source="6iWy4jJI9dwAKIS74mSv-10" target="6iWy4jJI9dwAKIS74mSv-11" edge="1">
          <mxGeometry relative="1" as="geometry" />
        </mxCell>
        <mxCell id="6iWy4jJI9dwAKIS74mSv-47" value="ДА" style="edgeLabel;html=1;align=center;verticalAlign=middle;resizable=0;points=[];fontSize=14;" parent="6iWy4jJI9dwAKIS74mSv-45" vertex="1" connectable="0">
          <mxGeometry x="-0.4951" relative="1" as="geometry">
            <mxPoint as="offset" />
          </mxGeometry>
        </mxCell>
        <mxCell id="6iWy4jJI9dwAKIS74mSv-50" style="edgeStyle=orthogonalEdgeStyle;rounded=0;orthogonalLoop=1;jettySize=auto;html=1;exitX=1;exitY=0.5;exitDx=0;exitDy=0;entryX=1;entryY=0.5;entryDx=0;entryDy=0;" parent="1" source="6iWy4jJI9dwAKIS74mSv-10" target="6iWy4jJI9dwAKIS74mSv-26" edge="1">
          <mxGeometry relative="1" as="geometry">
            <Array as="points">
              <mxPoint x="286.25" y="865" />
              <mxPoint x="286.25" y="1130" />
            </Array>
          </mxGeometry>
        </mxCell>
        <mxCell id="6iWy4jJI9dwAKIS74mSv-51" value="НЕТ" style="edgeLabel;html=1;align=center;verticalAlign=middle;resizable=0;points=[];fontSize=14;" parent="6iWy4jJI9dwAKIS74mSv-50" vertex="1" connectable="0">
          <mxGeometry x="-0.8492" y="-1" relative="1" as="geometry">
            <mxPoint x="1" as="offset" />
          </mxGeometry>
        </mxCell>
        <mxCell id="6iWy4jJI9dwAKIS74mSv-10" value="&lt;font style=&quot;font-size: 14px;&quot;&gt;&amp;nbsp;arr[ i ] &amp;gt; arr[ i+1 ]&lt;/font&gt;" style="rhombus;whiteSpace=wrap;html=1;" parent="1" vertex="1">
          <mxGeometry x="73.75" y="810" width="135" height="110" as="geometry" />
        </mxCell>
        <mxCell id="6iWy4jJI9dwAKIS74mSv-48" style="edgeStyle=orthogonalEdgeStyle;rounded=0;orthogonalLoop=1;jettySize=auto;html=1;exitX=0.5;exitY=1;exitDx=0;exitDy=0;entryX=0.5;entryY=0;entryDx=0;entryDy=0;" parent="1" source="6iWy4jJI9dwAKIS74mSv-11" target="6iWy4jJI9dwAKIS74mSv-25" edge="1">
          <mxGeometry relative="1" as="geometry" />
        </mxCell>
        <mxCell id="6iWy4jJI9dwAKIS74mSv-11" value="&lt;div style=&quot;font-size: 14px;&quot;&gt;&lt;font style=&quot;font-size: 14px;&quot;&gt;variable = arr[ i ]&lt;/font&gt;&lt;/div&gt;&lt;div style=&quot;font-size: 14px;&quot;&gt;&lt;font style=&quot;font-size: 14px;&quot;&gt;arr[ i ] = arr[ i+1 ]&lt;/font&gt;&lt;/div&gt;&lt;div style=&quot;font-size: 14px;&quot;&gt;&lt;font style=&quot;font-size: 14px;&quot;&gt;arr[ i+1 ] = variable&lt;font style=&quot;font-size: 14px;&quot;&gt;&lt;br&gt;&lt;/font&gt;&lt;/font&gt;&lt;/div&gt;" style="rounded=0;whiteSpace=wrap;html=1;" parent="1" vertex="1">
          <mxGeometry x="-68.75" y="910" width="130" height="60" as="geometry" />
        </mxCell>
        <mxCell id="6iWy4jJI9dwAKIS74mSv-54" style="edgeStyle=orthogonalEdgeStyle;rounded=0;orthogonalLoop=1;jettySize=auto;html=1;exitX=0.5;exitY=1;exitDx=0;exitDy=0;entryX=0.5;entryY=0;entryDx=0;entryDy=0;" parent="1" source="6iWy4jJI9dwAKIS74mSv-14" target="6iWy4jJI9dwAKIS74mSv-27" edge="1">
          <mxGeometry relative="1" as="geometry" />
        </mxCell>
        <mxCell id="6iWy4jJI9dwAKIS74mSv-14" value="&lt;font style=&quot;font-size: 14px;&quot;&gt;rightPosition - -&lt;/font&gt;" style="rounded=0;whiteSpace=wrap;html=1;" parent="1" vertex="1">
          <mxGeometry x="81.25" y="1210" width="120" height="60" as="geometry" />
        </mxCell>
        <mxCell id="6iWy4jJI9dwAKIS74mSv-65" style="edgeStyle=orthogonalEdgeStyle;rounded=0;orthogonalLoop=1;jettySize=auto;html=1;exitX=0.5;exitY=1;exitDx=0;exitDy=0;" parent="1" source="6iWy4jJI9dwAKIS74mSv-21" target="6iWy4jJI9dwAKIS74mSv-33" edge="1">
          <mxGeometry relative="1" as="geometry" />
        </mxCell>
        <mxCell id="6iWy4jJI9dwAKIS74mSv-21" value="&lt;font style=&quot;font-size: 14px;&quot;&gt;Вывод отсортированного массива arr[ ]&lt;/font&gt;" style="rounded=0;whiteSpace=wrap;html=1;" parent="1" vertex="1">
          <mxGeometry x="570" y="555" width="140" height="70" as="geometry" />
        </mxCell>
        <mxCell id="6iWy4jJI9dwAKIS74mSv-38" style="edgeStyle=orthogonalEdgeStyle;rounded=0;orthogonalLoop=1;jettySize=auto;html=1;exitX=0.5;exitY=1;exitDx=0;exitDy=0;" parent="1" source="6iWy4jJI9dwAKIS74mSv-23" target="6iWy4jJI9dwAKIS74mSv-7" edge="1">
          <mxGeometry relative="1" as="geometry" />
        </mxCell>
        <mxCell id="6iWy4jJI9dwAKIS74mSv-23" value="left&lt;font style=&quot;font-size: 14px;&quot;&gt;Position = 0&lt;/font&gt;" style="rounded=0;whiteSpace=wrap;html=1;" parent="1" vertex="1">
          <mxGeometry x="345" y="330" width="110" height="50" as="geometry" />
        </mxCell>
        <mxCell id="6iWy4jJI9dwAKIS74mSv-42" style="edgeStyle=orthogonalEdgeStyle;rounded=0;orthogonalLoop=1;jettySize=auto;html=1;exitX=0.5;exitY=1;exitDx=0;exitDy=0;" parent="1" source="6iWy4jJI9dwAKIS74mSv-24" target="6iWy4jJI9dwAKIS74mSv-9" edge="1">
          <mxGeometry relative="1" as="geometry" />
        </mxCell>
        <mxCell id="6iWy4jJI9dwAKIS74mSv-24" value="&lt;font style=&quot;font-size: 14px;&quot;&gt;flag = 0&lt;/font&gt;" style="rounded=0;whiteSpace=wrap;html=1;" parent="1" vertex="1">
          <mxGeometry x="86.25" y="551.79" width="110" height="40" as="geometry" />
        </mxCell>
        <mxCell id="6iWy4jJI9dwAKIS74mSv-69" style="edgeStyle=orthogonalEdgeStyle;rounded=0;orthogonalLoop=1;jettySize=auto;html=1;exitX=0.5;exitY=1;exitDx=0;exitDy=0;entryX=1;entryY=0.5;entryDx=0;entryDy=0;" parent="1" source="6iWy4jJI9dwAKIS74mSv-25" target="6iWy4jJI9dwAKIS74mSv-26" edge="1">
          <mxGeometry relative="1" as="geometry" />
        </mxCell>
        <mxCell id="6iWy4jJI9dwAKIS74mSv-25" value="&lt;font style=&quot;font-size: 14px;&quot;&gt;flag = 1&lt;/font&gt;" style="rounded=0;whiteSpace=wrap;html=1;" parent="1" vertex="1">
          <mxGeometry x="-58.75" y="1010" width="110" height="40" as="geometry" />
        </mxCell>
        <mxCell id="6iWy4jJI9dwAKIS74mSv-68" style="edgeStyle=orthogonalEdgeStyle;rounded=0;orthogonalLoop=1;jettySize=auto;html=1;" parent="1" source="6iWy4jJI9dwAKIS74mSv-26" edge="1">
          <mxGeometry relative="1" as="geometry">
            <mxPoint x="141.25" y="1210" as="targetPoint" />
          </mxGeometry>
        </mxCell>
        <mxCell id="6iWy4jJI9dwAKIS74mSv-26" value="" style="shape=loopLimit;whiteSpace=wrap;html=1;rotation=-180;" parent="1" vertex="1">
          <mxGeometry x="76.25" y="1090" width="130" height="80" as="geometry" />
        </mxCell>
        <mxCell id="6iWy4jJI9dwAKIS74mSv-55" style="edgeStyle=orthogonalEdgeStyle;rounded=0;orthogonalLoop=1;jettySize=auto;html=1;exitX=0.5;exitY=1;exitDx=0;exitDy=0;entryX=0.5;entryY=0;entryDx=0;entryDy=0;" parent="1" source="6iWy4jJI9dwAKIS74mSv-27" target="6iWy4jJI9dwAKIS74mSv-28" edge="1">
          <mxGeometry relative="1" as="geometry" />
        </mxCell>
        <mxCell id="6iWy4jJI9dwAKIS74mSv-27" value="&lt;div style=&quot;font-size: 14px;&quot;&gt;&lt;font style=&quot;font-size: 14px;&quot;&gt;Цикл j&lt;br&gt;&lt;/font&gt;&lt;/div&gt;&lt;div style=&quot;font-size: 14px;&quot;&gt;&lt;font style=&quot;font-size: 14px;&quot;&gt;от rigthPosition&lt;/font&gt;&lt;/div&gt;&lt;div style=&quot;font-size: 14px;&quot;&gt;&lt;font style=&quot;font-size: 14px;&quot;&gt;до leftPosition&lt;font style=&quot;font-size: 14px;&quot;&gt;&lt;br&gt;&lt;/font&gt;&lt;/font&gt;&lt;/div&gt;" style="shape=loopLimit;whiteSpace=wrap;html=1;" parent="1" vertex="1">
          <mxGeometry x="76.25" y="1310" width="130" height="80" as="geometry" />
        </mxCell>
        <mxCell id="6iWy4jJI9dwAKIS74mSv-56" style="edgeStyle=orthogonalEdgeStyle;rounded=0;orthogonalLoop=1;jettySize=auto;html=1;exitX=0;exitY=0.5;exitDx=0;exitDy=0;entryX=0.5;entryY=0;entryDx=0;entryDy=0;" parent="1" source="6iWy4jJI9dwAKIS74mSv-28" target="6iWy4jJI9dwAKIS74mSv-29" edge="1">
          <mxGeometry relative="1" as="geometry" />
        </mxCell>
        <mxCell id="6iWy4jJI9dwAKIS74mSv-61" value="ДА" style="edgeLabel;html=1;align=center;verticalAlign=middle;resizable=0;points=[];fontSize=14;" parent="6iWy4jJI9dwAKIS74mSv-56" vertex="1" connectable="0">
          <mxGeometry x="-0.4038" y="-1" relative="1" as="geometry">
            <mxPoint as="offset" />
          </mxGeometry>
        </mxCell>
        <mxCell id="6iWy4jJI9dwAKIS74mSv-59" style="edgeStyle=orthogonalEdgeStyle;rounded=0;orthogonalLoop=1;jettySize=auto;html=1;exitX=1;exitY=0.5;exitDx=0;exitDy=0;entryX=1;entryY=0.5;entryDx=0;entryDy=0;" parent="1" source="6iWy4jJI9dwAKIS74mSv-28" target="6iWy4jJI9dwAKIS74mSv-32" edge="1">
          <mxGeometry relative="1" as="geometry">
            <Array as="points">
              <mxPoint x="286.25" y="1563.21" />
              <mxPoint x="286.25" y="1838.21" />
            </Array>
          </mxGeometry>
        </mxCell>
        <mxCell id="6iWy4jJI9dwAKIS74mSv-63" value="НЕТ" style="edgeLabel;html=1;align=center;verticalAlign=middle;resizable=0;points=[];fontSize=14;" parent="6iWy4jJI9dwAKIS74mSv-59" vertex="1" connectable="0">
          <mxGeometry x="-0.8405" y="-2" relative="1" as="geometry">
            <mxPoint x="1" y="-2" as="offset" />
          </mxGeometry>
        </mxCell>
        <mxCell id="6iWy4jJI9dwAKIS74mSv-28" value="&lt;font style=&quot;font-size: 14px;&quot;&gt;&amp;nbsp;arr[ j-1 ] &amp;gt; arr[ j ]&lt;/font&gt;" style="rhombus;whiteSpace=wrap;html=1;" parent="1" vertex="1">
          <mxGeometry x="73.75" y="1508.21" width="135" height="110" as="geometry" />
        </mxCell>
        <mxCell id="6iWy4jJI9dwAKIS74mSv-57" style="edgeStyle=orthogonalEdgeStyle;rounded=0;orthogonalLoop=1;jettySize=auto;html=1;exitX=0.5;exitY=1;exitDx=0;exitDy=0;entryX=0.5;entryY=0;entryDx=0;entryDy=0;" parent="1" source="6iWy4jJI9dwAKIS74mSv-29" target="6iWy4jJI9dwAKIS74mSv-31" edge="1">
          <mxGeometry relative="1" as="geometry" />
        </mxCell>
        <mxCell id="6iWy4jJI9dwAKIS74mSv-29" value="&lt;div style=&quot;font-size: 14px;&quot;&gt;&lt;font style=&quot;font-size: 14px;&quot;&gt;variable = arr[ j ]&lt;/font&gt;&lt;/div&gt;&lt;div style=&quot;font-size: 14px;&quot;&gt;&lt;font style=&quot;font-size: 14px;&quot;&gt;arr[ j ] = a[ j-1 ]&lt;/font&gt;&lt;/div&gt;&lt;div style=&quot;font-size: 14px;&quot;&gt;&lt;font style=&quot;font-size: 14px;&quot;&gt;a[ j ] = variable&lt;font style=&quot;font-size: 14px;&quot;&gt;&lt;br&gt;&lt;/font&gt;&lt;/font&gt;&lt;/div&gt;" style="rounded=0;whiteSpace=wrap;html=1;" parent="1" vertex="1">
          <mxGeometry x="-63.75" y="1618.21" width="120" height="60" as="geometry" />
        </mxCell>
        <mxCell id="6iWy4jJI9dwAKIS74mSv-67" style="edgeStyle=orthogonalEdgeStyle;rounded=0;orthogonalLoop=1;jettySize=auto;html=1;exitX=0.5;exitY=1;exitDx=0;exitDy=0;" parent="1" source="6iWy4jJI9dwAKIS74mSv-30" edge="1">
          <mxGeometry relative="1" as="geometry">
            <mxPoint x="400" y="410" as="targetPoint" />
            <mxPoint x="-390" y="1890" as="sourcePoint" />
            <Array as="points">
              <mxPoint x="141" y="2000" />
              <mxPoint x="-210" y="2000" />
              <mxPoint x="-210" y="410" />
            </Array>
          </mxGeometry>
        </mxCell>
        <mxCell id="6iWy4jJI9dwAKIS74mSv-30" value="&lt;font style=&quot;font-size: 14px;&quot;&gt;leftPosition + +&lt;br&gt;&lt;/font&gt;" style="rounded=0;whiteSpace=wrap;html=1;" parent="1" vertex="1">
          <mxGeometry x="81.25" y="1918.21" width="120" height="60" as="geometry" />
        </mxCell>
        <mxCell id="6iWy4jJI9dwAKIS74mSv-74" style="edgeStyle=orthogonalEdgeStyle;rounded=0;orthogonalLoop=1;jettySize=auto;html=1;exitX=0.5;exitY=1;exitDx=0;exitDy=0;entryX=1;entryY=0.5;entryDx=0;entryDy=0;" parent="1" source="6iWy4jJI9dwAKIS74mSv-31" target="6iWy4jJI9dwAKIS74mSv-32" edge="1">
          <mxGeometry relative="1" as="geometry" />
        </mxCell>
        <mxCell id="6iWy4jJI9dwAKIS74mSv-31" value="&lt;font style=&quot;font-size: 14px;&quot;&gt;flag = 1&lt;/font&gt;" style="rounded=0;whiteSpace=wrap;html=1;" parent="1" vertex="1">
          <mxGeometry x="-58.75" y="1718.21" width="110" height="40" as="geometry" />
        </mxCell>
        <mxCell id="6iWy4jJI9dwAKIS74mSv-75" style="edgeStyle=orthogonalEdgeStyle;rounded=0;orthogonalLoop=1;jettySize=auto;html=1;exitX=0.5;exitY=0;exitDx=0;exitDy=0;entryX=0.5;entryY=0;entryDx=0;entryDy=0;" parent="1" source="6iWy4jJI9dwAKIS74mSv-32" target="6iWy4jJI9dwAKIS74mSv-30" edge="1">
          <mxGeometry relative="1" as="geometry" />
        </mxCell>
        <mxCell id="6iWy4jJI9dwAKIS74mSv-32" value="" style="shape=loopLimit;whiteSpace=wrap;html=1;rotation=-180;" parent="1" vertex="1">
          <mxGeometry x="76.25" y="1798.21" width="130" height="80" as="geometry" />
        </mxCell>
        <mxCell id="6iWy4jJI9dwAKIS74mSv-33" value="&lt;b&gt;&lt;font size=&quot;1&quot;&gt;&lt;i&gt;&lt;font style=&quot;font-size: 19px;&quot;&gt;End&lt;/font&gt;&lt;/i&gt;&lt;/font&gt;&lt;/b&gt;" style="ellipse;whiteSpace=wrap;html=1;" parent="1" vertex="1">
          <mxGeometry x="580" y="670" width="120" height="80" as="geometry" />
        </mxCell>
        <mxCell id="6iWy4jJI9dwAKIS74mSv-72" value="&lt;div style=&quot;font-size: 14px;&quot;&gt;&lt;font style=&quot;font-size: 14px;&quot;&gt;Цикл&lt;/font&gt;&lt;/div&gt;&lt;div style=&quot;font-size: 14px;&quot;&gt;&lt;font style=&quot;font-size: 14px;&quot;&gt;i++&lt;font style=&quot;font-size: 14px;&quot;&gt;&lt;br&gt;&lt;/font&gt;&lt;/font&gt;&lt;/div&gt;" style="text;html=1;strokeColor=none;fillColor=none;align=center;verticalAlign=middle;whiteSpace=wrap;rounded=0;" parent="1" vertex="1">
          <mxGeometry x="111.25" y="1115" width="60" height="30" as="geometry" />
        </mxCell>
        <mxCell id="6iWy4jJI9dwAKIS74mSv-73" value="&lt;div style=&quot;font-size: 14px;&quot;&gt;&lt;font style=&quot;font-size: 14px;&quot;&gt;&amp;nbsp;j - - &lt;br&gt;&lt;/font&gt;&lt;/div&gt;&lt;div style=&quot;font-size: 14px;&quot;&gt;&lt;font style=&quot;font-size: 14px;&quot;&gt;Цикл j&lt;br&gt;&lt;/font&gt;&lt;/div&gt;" style="text;html=1;strokeColor=none;fillColor=none;align=center;verticalAlign=middle;whiteSpace=wrap;rounded=0;" parent="1" vertex="1">
          <mxGeometry x="111.25" y="1823.21" width="60" height="30" as="geometry" />
        </mxCell>
        <mxCell id="4WM1RJwRTXSjKx9riZBm-4" style="edgeStyle=orthogonalEdgeStyle;rounded=0;orthogonalLoop=1;jettySize=auto;html=1;exitX=0.5;exitY=1;exitDx=0;exitDy=0;entryX=0.5;entryY=0;entryDx=0;entryDy=0;" edge="1" parent="1" source="4WM1RJwRTXSjKx9riZBm-2" target="6iWy4jJI9dwAKIS74mSv-10">
          <mxGeometry relative="1" as="geometry" />
        </mxCell>
        <mxCell id="4WM1RJwRTXSjKx9riZBm-2" value="&lt;font style=&quot;font-size: 14px;&quot;&gt;variable = 0&lt;/font&gt;" style="rounded=0;whiteSpace=wrap;html=1;" vertex="1" parent="1">
          <mxGeometry x="86.25" y="731.79" width="110" height="38.21" as="geometry" />
        </mxCell>
        <mxCell id="4WM1RJwRTXSjKx9riZBm-5" value="&lt;font style=&quot;font-size: 14px;&quot;&gt;variable = 0&lt;/font&gt;" style="rounded=0;whiteSpace=wrap;html=1;" vertex="1" parent="1">
          <mxGeometry x="87.5" y="1428.21" width="108.75" height="40" as="geometry" />
        </mxCell>
      </root>
    </mxGraphModel>
  </diagram>
</mxfile>
